HIERARCHY
ROOT root
{
	OFFSET 0.000000 0.000000 0.000000
	CHANNELS 6 Xposition Yposition Zposition Zrotation Yrotation Xrotation
	JOINT lhip
	{
		OFFSET 0.058581 -0.082280 -0.017664
		CHANNELS 3 Zrotation Yrotation Xrotation
		JOINT lknee
		{
			OFFSET 0.043451 -0.386469 0.008037
			CHANNELS 3 Zrotation Yrotation Xrotation
			JOINT lankle
			{
				OFFSET -0.014790 -0.426874 -0.037428
				CHANNELS 3 Zrotation Yrotation Xrotation
				JOINT ltoe
				{
					OFFSET 0.041054 -0.060286 0.122042
					CHANNELS 3 Zrotation Yrotation Xrotation
					End Site
					{
						OFFSET 0.000000 0.000000 0.000000
					}
				}
			}
		}
	}
	JOINT rhip
	{
		OFFSET -0.060310 -0.090513 -0.013543
		CHANNELS 3 Zrotation Yrotation Xrotation
		JOINT rknee
		{
			OFFSET -0.043257 -0.383688 -0.004843
			CHANNELS 3 Zrotation Yrotation Xrotation
			JOINT rankle
			{
				OFFSET 0.019056 -0.420046 -0.034562
				CHANNELS 3 Zrotation Yrotation Xrotation
				JOINT rtoe
				{
					OFFSET -0.034840 -0.062106 0.130323
					CHANNELS 3 Zrotation Yrotation Xrotation
					End Site
					{
						OFFSET 0.000000 0.000000 0.000000
					}
				}
			}
		}
	}
	JOINT lowerback
	{
		OFFSET 0.004439 0.124404 -0.038385
		CHANNELS 3 Zrotation Yrotation Xrotation
		JOINT upperback
		{
			OFFSET 0.004488 0.137956 0.026820
			CHANNELS 3 Zrotation Yrotation Xrotation
			JOINT chest
			{
				OFFSET -0.002265 0.056032 0.002855
				CHANNELS 3 Zrotation Yrotation Xrotation
				JOINT lowerneck
				{
					OFFSET -0.013390 0.211636 -0.033468
					CHANNELS 3 Zrotation Yrotation Xrotation
					JOINT upperneck
					{
						OFFSET 0.010113 0.088937 0.050410
						CHANNELS 3 Zrotation Yrotation Xrotation
						End Site
						{
							OFFSET 0.000000 0.000000 0.000000
						}
					}
				}
				JOINT lclavicle
				{
					OFFSET 0.071702 0.114000 -0.018898
					CHANNELS 3 Zrotation Yrotation Xrotation
					JOINT lshoulder
					{
						OFFSET 0.122921 0.045205 -0.019046
						CHANNELS 3 Zrotation Yrotation Xrotation
						JOINT lelbow
						{
							OFFSET 0.255332 -0.015649 -0.022946
							CHANNELS 3 Zrotation Yrotation Xrotation
							JOINT lwrist
							{
								OFFSET 0.265709 0.012698 -0.007375
								CHANNELS 3 Zrotation Yrotation Xrotation
								End Site
								{
									OFFSET 0.000000 0.000000 0.000000
								}
							}
						}
					}
				}
				JOINT rclavicle
				{
					OFFSET -0.082954 0.112472 -0.023707
					CHANNELS 3 Zrotation Yrotation Xrotation
					JOINT rshoulder
					{
						OFFSET -0.113228 0.046853 -0.008472
						CHANNELS 3 Zrotation Yrotation Xrotation
						JOINT relbow
						{
							OFFSET -0.260127 -0.014369 -0.031269
							CHANNELS 3 Zrotation Yrotation Xrotation
							JOINT rwrist
							{
								OFFSET -0.269108 0.006794 -0.006027
								CHANNELS 3 Zrotation Yrotation Xrotation
								End Site
								{
									OFFSET 0.000000 0.000000 0.000000
								}
							}
						}
					}
				}
			}
		}
	}
}
MOTION
Frames: 17
Frame Time: 0.033333
-0.162796 0.709235 0.923756 43.504440 -2.038973 104.093205 12.735935 11.807072 -42.542475 -5.730339 13.589985 48.129814 -0.775382 15.830601 -19.751453 0.000000 -0.000000 0.000000 -0.573725 0.865465 -46.116232 6.188918 -3.839568 39.291873 -5.224585 -10.379334 -25.947804 0.000000 -0.000000 0.000000 1.799699 1.577781 54.361456 -3.028673 -3.243809 -0.708335 6.689289 -2.365977 0.835888 -16.642414 3.438740 -10.594625 10.591496 -3.389076 -37.982760 -21.650431 -50.225917 16.643920 -11.061963 -16.493607 -12.013016 9.953806 -25.628860 -5.963743 22.828073 -31.758620 -4.004554 6.012171 51.453079 10.011914 31.645268 13.177571 -14.603650 3.136697 32.100444 6.406295 -20.900845 14.216227 -14.876777 
-0.155259 0.702236 0.922991 42.543943 -2.215909 104.478606 11.803874 11.141939 -44.344052 -5.178677 14.038573 45.547468 0.109037 16.626938 -19.777251 0.000000 -0.000000 0.000000 -0.710643 0.873777 -46.307566 6.757885 -3.644102 40.316426 -5.119413 -10.830487 -27.322266 0.000000 -0.000000 0.000000 1.566708 2.129195 54.914249 -3.054081 -3.724898 -1.599754 7.130542 -3.131118 1.555305 -17.661493 3.428304 -10.458181 11.206315 -2.525768 -38.865026 -21.833782 -52.085678 16.189228 -8.951107 -17.310141 -13.234757 11.369649 -22.104975 -7.481151 18.300039 -29.838736 -3.686205 4.885319 51.290155 8.886156 33.934311 12.453121 -13.951003 2.397883 33.538004 7.255599 -18.366325 13.346292 -15.826215 
-0.148691 0.693845 0.923501 41.980611 -1.544957 104.760796 11.804922 11.421367 -46.502957 -5.622155 13.655640 43.823052 -0.150103 16.266447 -18.503574 0.000000 -0.000000 0.000000 0.214544 1.208571 -45.763062 6.737253 -3.836426 40.394007 -5.284278 -11.186942 -28.013255 0.000000 -0.000000 0.000000 1.813539 2.778778 55.319122 -2.992173 -4.053738 -2.756713 7.664079 -4.049511 2.832254 -18.776225 3.838943 -10.366092 11.272432 -2.078456 -39.689479 -22.407433 -53.830200 17.189838 -6.613373 -17.657130 -15.991471 12.935175 -20.210534 -7.688645 17.934592 -29.711177 -2.153626 3.378560 51.436407 7.843061 36.054166 11.020770 -14.056363 3.398835 35.689846 8.846760 -19.560222 12.714445 -17.474623 
-0.141934 0.684296 0.923985 41.518622 -1.267984 104.918852 11.377401 12.030378 -48.409293 -6.259647 13.425565 41.899211 -0.604518 15.592565 -16.828977 0.000000 -0.000000 0.000000 0.986288 1.483717 -45.082904 6.268231 -3.993925 40.662717 -5.395390 -12.386338 -29.208235 0.000000 -0.000000 0.000000 1.543141 3.304930 55.526947 -3.648849 -4.622831 -3.481242 7.717503 -4.921025 3.402703 -19.840727 3.765193 -10.407057 11.995519 -0.734136 -39.988588 -25.470081 -55.986028 20.508377 -3.619113 -16.113872 -16.955911 13.924964 -18.818518 -8.842407 20.899162 -30.186810 -3.589756 3.477423 51.838063 7.876699 37.194951 8.610921 -13.793223 6.661924 39.038341 11.913307 -18.862478 13.058537 -19.108117 
-0.134049 0.672601 0.924512 41.560081 -0.981822 104.720714 11.254774 12.305437 -49.849824 -6.527200 13.731983 40.195107 -0.743090 15.170886 -15.355732 0.000000 -0.000000 0.000000 1.670989 1.898561 -43.901834 5.747534 -4.009857 41.195488 -5.702463 -13.550063 -30.300721 0.000000 -0.000000 0.000000 0.849606 4.335421 55.377564 -3.844493 -4.950203 -3.614048 8.061243 -5.425846 3.617536 -20.687758 3.834863 -10.185141 12.743005 -0.433927 -40.172183 -27.268361 -57.337490 21.481420 -2.591898 -16.485114 -17.598308 13.751261 -18.288217 -9.591817 18.779596 -29.619995 -1.894974 3.425193 50.986036 7.544312 37.688228 5.650650 -12.889283 11.010044 42.619964 17.317209 -16.811914 13.926673 -20.039500 
-0.124646 0.658896 0.925522 42.638985 -0.681468 103.955116 11.083587 11.974604 -50.633172 -6.663258 14.122308 38.194204 -0.995190 16.229468 -13.978661 0.000000 -0.000000 0.000000 2.488306 1.744067 -41.707900 5.606084 -4.005396 41.263765 -5.647591 -14.429098 -31.769551 0.000000 -0.000000 0.000000 0.716293 4.688684 55.111474 -4.245656 -5.595570 -3.088735 8.118034 -5.641271 3.357714 -20.977971 2.944717 -9.852649 12.995321 0.520818 -39.761932 -29.481451 -57.951476 23.112506 -2.794907 -16.752353 -17.382020 13.272612 -20.078860 -10.064941 20.212977 -28.893299 -2.766406 2.220702 49.877334 6.913437 38.083435 2.587626 -11.982761 17.583879 45.627342 24.290513 -16.386056 14.230722 -20.377939 
-0.114466 0.642553 0.925846 43.936748 -0.254609 103.143379 10.651839 12.263619 -51.052094 -6.161967 15.685488 36.317345 -1.810660 15.721657 -10.890317 0.000000 -0.000000 0.000000 3.551105 1.822903 -39.208365 4.638235 -4.529890 41.306364 -6.324991 -15.446741 -33.553517 0.000000 -0.000000 0.000000 0.231709 5.008702 54.055812 -4.887384 -5.788370 -1.970730 7.842867 -5.458717 2.873050 -20.111947 2.690906 -9.728785 13.061768 0.765299 -39.040479 -28.560357 -57.331849 21.261564 -6.326264 -19.179015 -15.442887 13.854853 -22.293340 -10.583398 17.417969 -28.137764 -1.579438 0.817485 47.546850 6.367070 38.273219 0.159856 -9.745930 24.216466 49.130262 31.692303 -12.890077 16.126761 -20.961424 
-0.103049 0.623596 0.926064 45.632545 0.361824 102.152551 9.937526 12.692668 -50.429807 -6.199284 16.631725 33.388932 -3.656698 14.633899 -8.014956 0.000000 -0.000000 0.000000 5.135477 2.174807 -36.113110 3.518870 -4.773263 40.711175 -6.741710 -16.585246 -34.855894 0.000000 -0.000000 0.000000 -0.271696 4.981764 52.619150 -5.744236 -5.733819 -0.749666 7.340541 -5.021228 2.162849 -18.249352 2.588151 -9.911304 12.778663 0.642757 -37.806073 -26.253548 -55.726345 17.969084 -12.147775 -21.796703 -12.123752 13.923421 -25.184770 -10.976371 13.723734 -27.374667 -0.454867 -1.526353 44.550690 5.321591 38.804068 -1.651724 -7.629667 30.416308 51.758944 38.963440 -9.056672 16.925201 -20.903539 
-0.088383 0.603207 0.924784 48.263460 0.865172 101.211586 8.479992 12.506296 -49.836610 -6.118231 16.913791 31.798038 -4.525345 13.846132 -7.235359 0.000000 -0.000000 0.000000 6.325464 1.738560 -33.107422 2.680279 -5.872480 40.730381 -6.754145 -17.373285 -36.140523 0.000000 -0.000000 0.000000 -0.472798 4.367272 50.280440 -6.485266 -5.909660 0.931563 6.371955 -4.552951 1.166626 -16.138243 2.578364 -10.271904 12.780374 0.587445 -35.372203 -23.703669 -53.159178 14.464192 -19.702427 -24.192646 -7.584995 13.458180 -27.414434 -10.965611 11.382049 -27.210664 0.362945 -3.712529 40.908894 4.293470 38.981841 -3.381242 -5.318938 36.055924 53.441680 44.335077 -6.847308 18.470676 -21.623112 
-0.072215 0.581353 0.922672 51.401078 1.297001 100.577907 7.294576 11.423903 -49.274280 -5.614513 16.957359 32.629203 -2.932312 14.993396 -7.877957 0.000000 -0.000000 0.000000 7.570866 1.135057 -30.665239 2.094204 -7.363594 41.139196 -6.416702 -19.009647 -36.404207 0.000000 -0.000000 0.000000 -0.820582 3.730774 47.163963 -6.969961 -6.020367 2.467243 5.362453 -3.901523 0.556636 -13.297578 1.958662 -11.371668 12.652578 0.625395 -32.078739 -21.006162 -49.965329 10.571802 -27.899124 -25.540576 -2.390692 11.852130 -29.717453 -8.173638 7.333338 -26.108129 1.745733 -5.883656 36.420545 2.960291 38.559525 -5.779423 -3.572405 40.712465 55.379227 49.089356 -4.265278 19.033588 -22.227212 
-0.052195 0.559060 0.920301 54.562698 0.901413 99.148599 6.379447 8.627242 -46.479951 -5.207334 14.969846 32.577614 -0.274431 15.950387 -10.281157 0.000000 -0.000000 0.000000 7.394395 -0.783385 -28.730520 2.100422 -9.735738 44.680238 -5.661117 -19.504802 -35.108963 0.000000 -0.000000 0.000000 -1.645435 2.925310 44.840448 -7.602535 -6.223359 5.196680 3.962039 -3.432223 -1.255416 -9.742447 1.484585 -12.381702 12.257920 0.625287 -28.360035 -17.376261 -45.740065 6.440603 -36.323896 -25.333056 3.103082 10.244323 -33.268888 -4.837605 5.038546 -25.518039 4.655657 -7.727478 31.884299 2.174728 37.202893 -7.555854 -2.194607 43.879788 55.852476 50.447159 -3.760254 19.858637 -23.083036 
-0.030472 0.537453 0.916616 57.460451 0.645584 97.616620 6.810547 5.019635 -43.875832 -6.093240 11.910498 33.125800 2.544865 18.802461 -12.603979 0.000000 -0.000000 0.000000 5.903602 -2.222426 -28.994332 3.220835 -11.942960 52.690232 -5.267738 -18.925068 -30.505226 0.000000 -0.000000 0.000000 -2.514659 2.491837 43.141266 -7.850432 -6.177815 7.419089 3.014009 -2.590110 -3.024065 -7.601378 0.297509 -12.373821 12.403486 0.771101 -26.493956 -16.244641 -42.146415 4.355468 -41.112071 -23.226694 6.522434 5.534460 -37.595866 0.691989 2.006031 -24.330988 7.650620 -8.753247 27.944133 2.061688 33.546334 -10.809440 -3.011547 47.680453 55.729040 51.109358 -0.472906 20.520714 -23.172361 
-0.008618 0.516659 0.912823 60.280689 0.617323 96.049222 7.987591 1.596352 -42.254057 -7.048627 10.039327 36.196103 3.729233 20.202507 -15.759489 0.000000 -0.000000 0.000000 3.479239 -3.111414 -30.994159 4.066385 -13.839252 63.280505 -5.040704 -15.067012 -21.104671 0.000000 -0.000000 0.000000 -3.187364 2.006543 41.929059 -7.845178 -5.886681 10.588404 2.145081 -2.255509 -5.801447 -4.984220 -0.472277 -12.695119 12.227314 0.253817 -25.558691 -16.196853 -38.818632 3.337104 -44.721495 -20.142040 9.621702 4.598072 -41.480232 2.866543 -2.328201 -25.073661 10.962608 -9.115360 25.181771 2.518604 28.824419 -13.080899 -3.051165 46.225140 54.940095 47.589411 3.236910 22.174486 -21.401774 
0.010204 0.495246 0.907816 63.529117 1.199362 94.888227 9.535755 0.427473 -40.919823 -8.339715 9.985179 38.571365 4.361965 19.882255 -18.421071 0.000000 -0.000000 0.000000 1.588826 -3.355588 -33.723885 4.982234 -14.724158 72.410367 -5.146053 -11.219982 -17.983724 0.000000 -0.000000 0.000000 -3.691894 2.085700 41.416287 -6.699289 -5.010659 10.979300 2.027349 -2.875248 -6.125642 -2.456797 -1.976514 -13.440329 11.900017 0.345756 -25.064547 -15.210974 -34.032024 1.818712 -48.064200 -18.101440 12.056498 3.418248 -46.461825 6.071698 -4.000952 -25.111717 14.244676 -9.367949 21.094591 2.610798 22.995770 -12.374172 -3.198174 41.534764 52.172184 42.299610 5.264820 22.776447 -18.336028 
0.029184 0.475169 0.899962 67.245601 1.684521 94.315429 9.418708 0.635831 -40.711714 -9.233848 7.270700 41.667168 4.027871 19.151153 -21.940287 0.000000 -0.000000 0.000000 -0.357978 -4.409940 -36.663013 2.924697 -14.975558 78.442881 -5.218172 -12.488804 -19.034336 0.000000 -0.000000 0.000000 -3.571930 1.095096 41.039018 -6.299121 -4.800620 9.080984 2.101343 -2.688790 -5.064887 -1.669235 -4.158861 -12.293587 12.575981 0.005843 -26.127728 -15.594223 -30.130927 1.558346 -48.844404 -14.671545 12.387492 1.717693 -50.917458 7.289905 -4.500302 -26.509070 15.875127 -10.667290 18.750157 2.436317 19.325584 -11.765572 -4.750085 33.150752 47.244098 35.133170 7.020411 23.061389 -14.893287 
0.047754 0.454874 0.894091 71.491143 2.246063 94.086677 9.868116 0.810797 -40.818445 -10.642849 5.121321 44.480824 3.260441 18.063152 -24.760153 0.000000 -0.000000 0.000000 -2.524673 -5.602522 -39.230194 0.783515 -13.823859 79.909961 -5.457828 -14.332618 -20.802555 0.000000 -0.000000 0.000000 -3.069495 -0.162331 40.943504 -5.648792 -4.757904 8.154834 2.207300 -2.584130 -5.340973 -0.360590 -6.121590 -12.221135 12.627963 -0.285628 -26.699585 -15.209946 -25.918984 1.309804 -49.380448 -11.423353 12.054444 0.935187 -54.590088 8.305281 -1.543785 -29.293115 14.145117 -10.993165 16.754813 2.766486 14.825535 -10.055328 -6.479668 24.457209 40.538612 28.480434 5.639053 22.954415 -10.865269 
0.066338 0.434334 0.889227 75.073104 2.347100 93.408611 10.571083 1.189183 -40.014611 -11.463195 4.677491 46.717498 2.654315 16.317116 -26.555024 0.000000 -0.000000 0.000000 -5.633303 -6.831502 -40.440913 0.233088 -11.733418 77.019302 -5.740459 -14.243969 -22.246397 0.000000 -0.000000 0.000000 -2.501371 -0.779308 41.409857 -5.102715 -4.575927 7.542480 2.272958 -2.701598 -5.627611 1.060658 -8.055775 -12.107245 12.645500 -0.764730 -27.832757 -13.939984 -22.165160 1.027847 -50.113519 -8.392502 11.214207 3.698334 -56.982426 5.205962 3.212367 -32.789907 10.436021 -12.229658 14.676332 2.294172 11.236688 -7.153453 -9.714282 15.988268 32.533034 21.438025 3.125975 22.015434 -5.307240 
